<svg id="Groupe_54" data-name="Groupe 54" xmlns="http://www.w3.org/2000/svg" xmlns:xlink="http://www.w3.org/1999/xlink" width="398" height="133.321" viewBox="0 0 398 133.321">
  <defs>
    <linearGradient id="linear-gradient" x1="0.518" y1="-0.79" x2="0.789" y2="1.553" gradientUnits="objectBoundingBox">
      <stop offset="0" stop-color="#313b4c"/>
      <stop offset="0.117" stop-color="#222839"/>
      <stop offset="1" stop-color="#5e807b"/>
      <stop offset="1" stop-color="#77928e"/>
    </linearGradient>
  </defs>
  <path id="Tracé_23" data-name="Tracé 23" d="M2257.425,413.766H1908.281c-20.838,0-24.307,7.215-24.307,24.375v84.724c0,17.146,7.137,24.222,24.284,24.222h349.169c17.159,0,24.548-7.085,24.548-24.244v-84.7C2281.974,420.981,2274.584,413.766,2257.425,413.766Z" transform="translate(-1883.974 -413.766)" fill-rule="evenodd" fill="url(#linear-gradient)"/>
  <g id="Groupe_44" data-name="Groupe 44" transform="translate(30.422 20.369)">
    <path id="Tracé_24" data-name="Tracé 24" d="M2034.9,559.306a61.37,61.37,0,0,1-5.545,10.353c-3.6,5.484-8.677,12.311-14.966,12.368-5.589.051-7.024-3.638-14.608-3.6s-9.168,3.66-14.758,3.609c-6.289-.058-11.1-6.224-14.7-11.705-10.071-15.33-11.123-33.321-4.913-42.884,4.415-6.8,11.376-10.776,17.924-10.776,6.666,0,10.856,3.656,16.367,3.656,5.346,0,8.605-3.662,16.311-3.662,5.825,0,12,3.171,16.4,8.657-14.409,7.9-12.07,28.478,2.491,33.98" transform="translate(-1961.557 -496.688)" fill="#fff" fill-rule="evenodd"/>
    <path id="Tracé_25" data-name="Tracé 25" d="M2064.818,479.57c2.8-3.594,4.927-8.67,4.155-13.857-4.573.315-9.924,3.225-13.049,7.018-2.835,3.444-5.176,8.553-4.264,13.517,4.993.154,10.159-2.828,13.158-6.678" transform="translate(-2016.207 -465.713)" fill="#fff" fill-rule="evenodd"/>
  </g>
  <path id="Tracé_26" data-name="Tracé 26" d="M2434.052,598.125H2413.8a8.881,8.881,0,0,0,2.94,6.731,9.961,9.961,0,0,0,6.62,2.067,22.062,22.062,0,0,0,8.186-1.481l1.062,4.677a25.187,25.187,0,0,1-10.19,1.862q-7.046,0-11.083-4.149T2407.3,596.68a17.49,17.49,0,0,1,3.749-11.448,12.98,12.98,0,0,1,10.625-4.865q6.58,0,9.936,4.865a16.884,16.884,0,0,1,2.687,9.7A17.739,17.739,0,0,1,2434.052,598.125Zm-28.77-11.141a10.6,10.6,0,0,0-2.177-.171,6.427,6.427,0,0,0-5.521,2.682,10.037,10.037,0,0,0-1.712,5.992v15.578H2389.2V590.6c0-3.478-.145-6.593-.264-9.73h5.871l.251,6.274h.186a10.8,10.8,0,0,1,3.374-4.942,8.325,8.325,0,0,1,4.932-1.691,11.266,11.266,0,0,1,1.728.044Zm-24.4,20.508a14.315,14.315,0,0,1-11.119,4.614,13.6,13.6,0,0,1-10.669-4.436,16.159,16.159,0,0,1-3.958-11.185,16.5,16.5,0,0,1,4.088-11.554c2.732-3.011,6.4-4.49,11.021-4.49a13.829,13.829,0,0,1,10.761,4.435,16,16,0,0,1,3.867,11.112A16.667,16.667,0,0,1,2380.884,607.491Zm-27.754-21.13h-7.058v14.506c0,3.746,1.162,5.6,3.787,5.6a11.593,11.593,0,0,0,2.917-.294l.152,5.111a15.343,15.343,0,0,1-5.268.754,8.206,8.206,0,0,1-6.316-2.438c-1.513-1.617-2.331-4.349-2.331-8.181V586.361H2334.7v-5.49h4.313v-5.379l7.058-2v7.379h7.058Zm-23.719,21.991q-4.132,3.692-11.474,3.684-6.812,0-10.914-2.621l1.567-5.622a18.841,18.841,0,0,0,9.734,2.625,9.251,9.251,0,0,0,5.943-1.718,5.617,5.617,0,0,0,2.118-4.61,5.9,5.9,0,0,0-1.743-4.3,16.56,16.56,0,0,0-5.809-3.249q-11.049-4.111-11.055-12.05a10.623,10.623,0,0,1,3.9-8.5q3.906-3.3,10.345-3.31a20.6,20.6,0,0,1,9.565,2l-1.7,5.5a16.689,16.689,0,0,0-8.081-1.94,8.387,8.387,0,0,0-5.587,1.744,5.059,5.059,0,0,0-1.685,3.821,5.216,5.216,0,0,0,1.935,4.135,22.157,22.157,0,0,0,6.117,3.237,20.54,20.54,0,0,1,8.007,5.129,10.729,10.729,0,0,1,2.561,7.3A11.246,11.246,0,0,1,2329.411,608.352Zm-38.988-.235a12.418,12.418,0,0,1-9.384,3.989c-4.019,0-6.725-1.434-8.686-4.32V624h-6.666V591.028c0-3.246-.124-6.236-.286-10.157h5.919l.391,5.1h.116a11.49,11.49,0,0,1,10.25-5.476,11.217,11.217,0,0,1,8.967,4.216q3.6,4.239,3.6,11.17C2294.641,601.058,2293.238,605.11,2290.423,608.116Zm-33.362,0a12.378,12.378,0,0,1-9.363,3.989c-4.031,0-6.714-1.434-8.675-4.32V624h-6.666V591.028c0-3.246-.154-6.236-.326-10.157h5.936l.373,5.1h.118a11.492,11.492,0,0,1,10.259-5.476,11.25,11.25,0,0,1,8.972,4.216q3.581,4.239,3.589,11.17C2261.279,601.058,2259.876,605.11,2257.061,608.116Zm-36.086,2.948-3.932-12.156h-13.688l-3.754,12.156h-6.991l13.546-41.957h8.382l13.627,41.957Zm200.2-26.021a6.659,6.659,0,0,0-5.373,2.95,9.672,9.672,0,0,0-2,5.425h14.057a9.122,9.122,0,0,0-1.306-5.369A6.08,6.08,0,0,0,2421.177,585.043Zm-211.014-10.054h-.118c-.424,1.961-1.081,4.57-2.006,8.074l-3.5,11.14h11.305l-3.546-11.14C2211.915,581.933,2211.2,578.911,2210.163,574.989Zm69.729,10.8a6.978,6.978,0,0,0-4.525,1.65,7.816,7.816,0,0,0-2.686,4.358,9.08,9.08,0,0,0-.328,2.066v5.053a8.111,8.111,0,0,0,2.05,5.6,6.791,6.791,0,0,0,5.281,2.271,6.914,6.914,0,0,0,5.954-2.935,12.924,12.924,0,0,0,2.134-7.757,12.52,12.52,0,0,0-2-7.3A6.967,6.967,0,0,0,2279.892,585.794Zm90.107-.42a6.744,6.744,0,0,0-6.172,3.611,13.636,13.636,0,0,0-1.819,7.277,13.425,13.425,0,0,0,1.819,7.167,6.9,6.9,0,0,0,12.167-.075,13.37,13.37,0,0,0,1.886-7.208,13.606,13.606,0,0,0-1.8-7.161A6.707,6.707,0,0,0,2370,585.374Zm-123.478.42a6.985,6.985,0,0,0-4.523,1.65,7.756,7.756,0,0,0-2.662,4.358,9.06,9.06,0,0,0-.312,2.066v5.053a8.086,8.086,0,0,0,2.031,5.6,6.777,6.777,0,0,0,5.279,2.271,6.911,6.911,0,0,0,5.942-2.935,12.941,12.941,0,0,0,2.118-7.757,12.472,12.472,0,0,0-1.993-7.3A6.952,6.952,0,0,0,2246.521,585.794Z" transform="translate(-2071.588 -507.937)" fill="#fff" fill-rule="evenodd"/>
  <g id="Groupe_45" data-name="Groupe 45" transform="translate(125.452 28.892)">
    <path id="Tracé_27" data-name="Tracé 27" d="M2203.908,490.312a38.241,38.241,0,0,1,6.033-.43c3.878,0,6.556.8,8.464,2.4,2,1.631,3.232,4.093,3.232,7.633a10.736,10.736,0,0,1-3.232,8.249c-2.062,1.878-5.355,2.831-9.387,2.831a41.4,41.4,0,0,1-5.109-.277Zm3.786,17.574a14.132,14.132,0,0,0,2.093.092c4.924.031,7.848-2.678,7.848-7.941.031-4.586-2.616-7.2-7.355-7.2a12.119,12.119,0,0,0-2.586.215Z" transform="translate(-2203.908 -488.927)" fill="#fff"/>
    <path id="Tracé_28" data-name="Tracé 28" d="M2269.9,511.782c0,5.509-3.878,7.971-7.695,7.971-4.247,0-7.51-2.924-7.51-7.725,0-4.925,3.232-7.941,7.756-7.941C2266.915,504.087,2269.9,507.226,2269.9,511.782Zm-11.3.154c0,2.893,1.416,5.078,3.724,5.078,2.155,0,3.663-2.124,3.663-5.14,0-2.339-1.046-5.017-3.632-5.017C2259.682,506.857,2258.6,509.443,2258.6,511.936Z" transform="translate(-2234.781 -497.562)" fill="#fff"/>
    <path id="Tracé_29" data-name="Tracé 29" d="M2300.57,504.951l1.57,6.8c.339,1.6.677,3.232.954,4.863h.062c.308-1.631.8-3.293,1.231-4.832l1.939-6.833h3.078l1.877,6.648c.462,1.754.862,3.385,1.2,5.017h.062c.246-1.631.584-3.262.985-5.017l1.662-6.648h3.724L2314.2,519.94H2310.7l-1.785-6.094a46.044,46.044,0,0,1-1.139-4.8h-.062a39.443,39.443,0,0,1-1.139,4.8l-1.908,6.094h-3.54l-4.432-14.989Z" transform="translate(-2260.309 -498.087)" fill="#fff"/>
    <path id="Tracé_30" data-name="Tracé 30" d="M2359.377,508.889c0-1.723-.031-3.17-.123-4.463h3.324l.185,2.247h.093a5.4,5.4,0,0,1,4.771-2.586c2.615,0,5.324,1.693,5.324,6.433v8.895h-3.785v-8.464c0-2.155-.8-3.786-2.862-3.786a3.177,3.177,0,0,0-2.955,2.216,3.859,3.859,0,0,0-.154,1.231v8.8h-3.817Z" transform="translate(-2298.34 -497.562)" fill="#fff"/>
    <path id="Tracé_31" data-name="Tracé 31" d="M2404.468,487.447h3.816V509.3h-3.816Z" transform="translate(-2325.825 -487.447)" fill="#fff"/>
    <path id="Tracé_32" data-name="Tracé 32" d="M2437.411,511.782c0,5.509-3.878,7.971-7.694,7.971-4.247,0-7.51-2.924-7.51-7.725,0-4.925,3.231-7.941,7.756-7.941C2434.426,504.087,2437.411,507.226,2437.411,511.782Zm-11.3.154c0,2.893,1.416,5.078,3.724,5.078,2.155,0,3.663-2.124,3.663-5.14,0-2.339-1.046-5.017-3.632-5.017C2427.193,506.857,2426.116,509.443,2426.116,511.936Z" transform="translate(-2336.608 -497.562)" fill="#fff"/>
    <path id="Tracé_33" data-name="Tracé 33" d="M2475.724,519.415l-.246-1.662h-.093a5.569,5.569,0,0,1-4.432,2,4.449,4.449,0,0,1-4.709-4.463c0-3.786,3.355-5.694,8.9-5.663v-.246c0-.985-.4-2.616-3.047-2.616a7.938,7.938,0,0,0-4.032,1.108l-.738-2.462a10.786,10.786,0,0,1,5.417-1.324c4.8,0,6.187,3.047,6.187,6.31v5.417a24.089,24.089,0,0,0,.215,3.6Zm-.492-7.325c-2.677-.062-5.232.523-5.232,2.8a1.986,1.986,0,0,0,2.154,2.154,3.067,3.067,0,0,0,2.955-2.062,2.729,2.729,0,0,0,.123-.831Z" transform="translate(-2363.377 -497.562)" fill="#fff"/>
    <path id="Tracé_34" data-name="Tracé 34" d="M2521.129,487.447v17.636c0,1.539.062,3.2.123,4.217h-3.386l-.154-2.37h-.062a5.394,5.394,0,0,1-4.894,2.708c-3.57,0-6.4-3.047-6.4-7.664-.03-5.017,3.109-8,6.71-8a4.775,4.775,0,0,1,4.216,1.97h.062v-8.494Zm-3.785,13.111a5.334,5.334,0,0,0-.093-.985,3.316,3.316,0,0,0-3.263-2.678c-2.431,0-3.786,2.154-3.786,4.955,0,2.739,1.354,4.74,3.755,4.74a3.34,3.34,0,0,0,3.263-2.678,4.219,4.219,0,0,0,.124-1.108Z" transform="translate(-2387.76 -487.447)" fill="#fff"/>
    <path id="Tracé_35" data-name="Tracé 35" d="M2583.415,511.782c0,5.509-3.878,7.971-7.694,7.971-4.248,0-7.51-2.924-7.51-7.725,0-4.925,3.231-7.941,7.756-7.941C2580.43,504.087,2583.415,507.226,2583.415,511.782Zm-11.3.154c0,2.893,1.416,5.078,3.724,5.078,2.155,0,3.663-2.124,3.663-5.14,0-2.339-1.047-5.017-3.632-5.017C2573.2,506.857,2572.119,509.443,2572.119,511.936Z" transform="translate(-2425.361 -497.562)" fill="#fff"/>
    <path id="Tracé_36" data-name="Tracé 36" d="M2614.725,508.889c0-1.723-.031-3.17-.123-4.463h3.324l.184,2.247h.093a5.4,5.4,0,0,1,4.77-2.586c2.616,0,5.325,1.693,5.325,6.433v8.895h-3.786v-8.464c0-2.155-.8-3.786-2.863-3.786a3.178,3.178,0,0,0-2.955,2.216,3.86,3.86,0,0,0-.153,1.231v8.8h-3.817Z" transform="translate(-2453.562 -497.562)" fill="#fff"/>
    <path id="Tracé_37" data-name="Tracé 37" d="M2678.066,494.04v4.278h3.6v2.832h-3.6v6.617c0,1.816.492,2.77,1.939,2.77a5.608,5.608,0,0,0,1.478-.184l.062,2.893a8.323,8.323,0,0,1-2.739.369,4.383,4.383,0,0,1-3.262-1.231c-.8-.862-1.17-2.216-1.17-4.185V501.15h-2.154v-2.832h2.154v-3.385Z" transform="translate(-2488.585 -491.455)" fill="#fff"/>
    <path id="Tracé_38" data-name="Tracé 38" d="M2703.617,487.447h3.816v8.926h.062a5.076,5.076,0,0,1,1.877-1.724,5.133,5.133,0,0,1,2.585-.677c2.555,0,5.232,1.693,5.232,6.494V509.3H2713.4v-8.4c0-2.185-.8-3.816-2.893-3.816a3.087,3.087,0,0,0-2.924,2.124,3.179,3.179,0,0,0-.154,1.139V509.3h-3.816Z" transform="translate(-2507.672 -487.447)" fill="#fff"/>
    <path id="Tracé_39" data-name="Tracé 39" d="M2749.715,512.982c.092,2.708,2.216,3.878,4.617,3.878a11.259,11.259,0,0,0,4.155-.677l.554,2.616a14.109,14.109,0,0,1-5.232.923c-4.863,0-7.726-2.986-7.726-7.571,0-4.155,2.524-8.064,7.325-8.064,4.863,0,6.463,4,6.463,7.294a9.269,9.269,0,0,1-.123,1.6Zm6.586-2.647c.031-1.385-.585-3.662-3.108-3.662-2.339,0-3.324,2.123-3.478,3.662Z" transform="translate(-2533.486 -497.562)" fill="#fff"/>
  </g>
</svg>
