<svg id="Groupe_53" data-name="Groupe 53" xmlns="http://www.w3.org/2000/svg" xmlns:xlink="http://www.w3.org/1999/xlink" width="398" height="133.32" viewBox="0 0 398 133.32">
  <defs>
    <linearGradient id="linear-gradient" x1="0.661" y1="1.8" x2="0.382" y2="-0.367" gradientUnits="objectBoundingBox">
      <stop offset="0" stop-color="#5e807b"/>
      <stop offset="0.883" stop-color="#313b4c"/>
      <stop offset="1" stop-color="#222839"/>
    </linearGradient>
  </defs>
  <path id="Tracé_5" data-name="Tracé 5" d="M2272.18,804.716H1923.037c-20.839,0-24.307,7.215-24.307,24.375v84.724c0,17.146,7.137,24.221,24.283,24.221h349.169c17.158,0,24.548-7.085,24.548-24.244v-84.7C2296.729,811.931,2289.34,804.716,2272.18,804.716Z" transform="translate(-1898.73 -804.716)" fill-rule="evenodd" fill="url(#linear-gradient)"/>
  <g id="Groupe_41" data-name="Groupe 41" transform="translate(32.546 26.351)">
    <path id="Tracé_6" data-name="Tracé 6" d="M1983.318,872.261a2.346,2.346,0,0,0-1.588,2.227v77.755a2.345,2.345,0,0,0,1.566,2.219L2024.6,913.35Z" transform="translate(-1981.73 -872.127)" fill="#39b8e7"/>
    <path id="Tracé_7" data-name="Tracé 7" d="M2038.7,901.56l-50.971-29.326a2.325,2.325,0,0,0-1.948-.181l41.283,41.089Z" transform="translate(-1984.192 -871.918)" fill="#61a94f"/>
    <path id="Tracé_8" data-name="Tracé 8" d="M1987.695,1017.986l50.991-29.337-11.656-11.6-41.305,41.111A2.323,2.323,0,0,0,1987.695,1017.986Z" transform="translate(-1984.158 -935.825)" fill="#df2939"/>
    <path id="Tracé_9" data-name="Tracé 9" d="M2102.72,970.694l16.582-9.54a2.36,2.36,0,0,0,0-4.091l-16.6-9.551-11.636,11.582Z" transform="translate(-2048.192 -917.87)" fill="#ffc400"/>
  </g>
  <g id="Groupe_42" data-name="Groupe 42" transform="translate(114.622 62.134)">
    <path id="Tracé_10" data-name="Tracé 10" d="M2273.171,977.468a12.8,12.8,0,0,0-13.079,13.079,12.983,12.983,0,0,0,13.079,13.08,12.8,12.8,0,0,0,13.08-13.08C2286.251,982.639,2280.472,977.468,2273.171,977.468Zm0,20.684c-3.954,0-7.3-3.346-7.3-7.909s3.346-7.909,7.3-7.909,7.3,3.042,7.3,7.909C2280.472,994.807,2277.126,998.152,2273.171,998.152Zm-28.288-20.684a12.8,12.8,0,0,0-13.079,13.079,12.983,12.983,0,0,0,13.079,13.08,12.8,12.8,0,0,0,13.08-13.08C2257.963,982.639,2252.183,977.468,2244.883,977.468Zm0,20.684c-3.954,0-7.3-3.346-7.3-7.909s3.346-7.909,7.3-7.909,7.3,3.042,7.3,7.909C2252.183,994.807,2248.837,998.152,2244.883,998.152Zm-33.763-16.73V986.9h13.08a11.5,11.5,0,0,1-3.042,7,13.461,13.461,0,0,1-10.038,3.954c-8.213,0-14.3-6.388-14.3-14.6a14.348,14.348,0,0,1,14.3-14.6,15.08,15.08,0,0,1,10.038,3.955l3.955-3.955a19.494,19.494,0,0,0-13.688-5.475c-10.95,0-20.38,9.125-20.38,20.076s9.429,20.076,20.38,20.076c6.083,0,10.342-1.825,13.992-5.78,3.65-3.65,4.867-8.821,4.867-12.775a11.4,11.4,0,0,0-.3-3.346Zm138.1,4.258c-1.217-3.042-4.258-8.213-10.95-8.213s-12.167,5.171-12.167,13.079a12.729,12.729,0,0,0,12.775,13.08,12.477,12.477,0,0,0,10.646-5.78l-4.259-3.042c-1.521,2.129-3.346,3.65-6.388,3.65s-4.867-1.217-6.387-3.954l17.338-7.3-.608-1.521Zm-17.642,4.258c0-4.867,3.954-7.6,6.691-7.6,2.129,0,4.259,1.217,4.867,2.737l-11.558,4.867Zm-14.3,12.471h5.779V964.389h-5.779Zm-9.125-22.2a10.015,10.015,0,0,0-7-3.042c-6.387,0-12.471,5.779-12.471,13.08a12.6,12.6,0,0,0,12.471,12.775,8.733,8.733,0,0,0,6.692-3.042h.3v1.825c0,4.867-2.738,7.6-7,7.6a6.758,6.758,0,0,1-6.387-4.562l-4.867,2.129a12.549,12.549,0,0,0,11.559,7.6c6.692,0,12.167-3.954,12.167-13.384V978.077h-5.476v2.129Zm-6.692,17.946c-3.955,0-7.3-3.346-7.3-7.909s3.346-7.909,7.3-7.909,7,3.346,7,7.909S2305.414,998.152,2301.46,998.152Zm74.219-33.764h-13.688v38.022h5.779v-14.3h7.909c6.388,0,12.472-4.563,12.472-11.863S2382.066,964.389,2375.678,964.389Zm.3,18.251h-8.213V969.56h8.213a6.682,6.682,0,0,1,6.692,6.388c-.3,3.346-2.738,6.692-6.692,6.692Zm34.98-5.475c-4.258,0-8.517,1.825-10.038,5.779l5.171,2.129a5.374,5.374,0,0,1,5.171-2.737c3.042,0,5.78,1.825,6.083,4.866v.3a12.066,12.066,0,0,0-5.779-1.521c-5.475,0-10.95,3.042-10.95,8.517,0,5.171,4.563,8.517,9.429,8.517a8.558,8.558,0,0,0,7.3-3.65h.3v3.042h5.475v-14.6c-.608-6.692-5.78-10.646-12.167-10.646Zm-.608,20.988c-1.825,0-4.563-.913-4.563-3.346,0-3.042,3.346-3.954,6.083-3.954a11.768,11.768,0,0,1,5.171,1.217A7.085,7.085,0,0,1,2410.355,998.152Zm31.938-20.076-6.388,16.426h-.3l-6.692-16.426h-6.083l10.038,23.117-5.779,12.775h5.779l15.513-35.892Zm-51.1,24.334h5.78V964.389h-5.78Z" transform="translate(-2191.044 -963.172)" fill="#fff"/>
  </g>
  <g id="Groupe_43" data-name="Groupe 43" transform="translate(114.428 31.979)">
    <path id="Tracé_11" data-name="Tracé 11" d="M2197.765,887.365h4.13l7.215,19.2h-4l-1.582-4.587h-7.4l-1.583,4.587h-4Zm4.587,11.292-1.716-4.8-.7-2.334h-.215l-.7,2.334-1.717,4.8Z" transform="translate(-2190.55 -886.936)" fill="#fff"/>
    <path id="Tracé_12" data-name="Tracé 12" d="M2243.629,887.365h4.211l7.725,12.874h.214l-.214-3.7v-9.173h3.594v19.2h-3.809l-8.153-13.6h-.215l.215,3.7v9.9h-3.568Z" transform="translate(-2222.816 -886.936)" fill="#fff"/>
    <path id="Tracé_13" data-name="Tracé 13" d="M2293.083,887.365h6.49a11.427,11.427,0,0,1,4.1.7,8.865,8.865,0,0,1,3.112,1.971,8.584,8.584,0,0,1,1.971,3.044,11.477,11.477,0,0,1,0,7.805,8.451,8.451,0,0,1-1.971,3.031,8.956,8.956,0,0,1-3.112,1.958,11.416,11.416,0,0,1-4.1.7h-6.49Zm6.33,15.771a8.082,8.082,0,0,0,2.789-.443,5.451,5.451,0,0,0,2.012-1.247,5.117,5.117,0,0,0,1.207-1.945,8.194,8.194,0,0,0,0-5.069,5.116,5.116,0,0,0-1.207-1.944,5.456,5.456,0,0,0-2.012-1.247,8.081,8.081,0,0,0-2.789-.442h-2.71v12.338Z" transform="translate(-2252.878 -886.936)" fill="#fff"/>
    <path id="Tracé_14" data-name="Tracé 14" d="M2342.264,887.365h7a7.242,7.242,0,0,1,2.629.456,6.067,6.067,0,0,1,2.025,1.261,5.493,5.493,0,0,1,1.3,1.918,6.351,6.351,0,0,1,.456,2.427,5.046,5.046,0,0,1-.322,1.81,5.44,5.44,0,0,1-.885,1.529,6.521,6.521,0,0,1-1.315,1.207,6.662,6.662,0,0,1-1.583.818l-.027.188,5.15,7.376v.214h-4.157l-4.962-7.215h-1.69v7.215h-3.621Zm6.973,8.663a2.823,2.823,0,0,0,2.025-.751,2.514,2.514,0,0,0,.792-1.9,2.913,2.913,0,0,0-.174-.992,2.511,2.511,0,0,0-.523-.858,2.589,2.589,0,0,0-.872-.6,2.973,2.973,0,0,0-1.194-.228h-3.406v5.338Z" transform="translate(-2282.774 -886.936)" fill="#fff"/>
    <path id="Tracé_15" data-name="Tracé 15" d="M2392.31,906.333a10.109,10.109,0,0,1-3.983-.778,9.7,9.7,0,0,1-5.284-5.324,10.485,10.485,0,0,1,0-7.859,9.7,9.7,0,0,1,5.284-5.324,10.584,10.584,0,0,1,7.966,0,9.711,9.711,0,0,1,5.284,5.324,10.485,10.485,0,0,1,0,7.859,9.71,9.71,0,0,1-5.284,5.324A10.115,10.115,0,0,1,2392.31,906.333Zm0-3.433a6.492,6.492,0,0,0,2.508-.483,6.314,6.314,0,0,0,2.038-1.341,6.094,6.094,0,0,0,1.368-2.078,7.571,7.571,0,0,0,0-5.391,6.1,6.1,0,0,0-1.368-2.079,6.323,6.323,0,0,0-2.038-1.341,6.756,6.756,0,0,0-5.016,0,6.32,6.32,0,0,0-2.038,1.341,6.088,6.088,0,0,0-1.368,2.079,7.568,7.568,0,0,0,0,5.391,6.083,6.083,0,0,0,1.368,2.078,6.311,6.311,0,0,0,2.038,1.341A6.492,6.492,0,0,0,2392.31,902.9Z" transform="translate(-2307.098 -886.271)" fill="#fff"/>
    <path id="Tracé_16" data-name="Tracé 16" d="M2440.9,887.365h3.621v19.2H2440.9Z" transform="translate(-2342.732 -886.936)" fill="#fff"/>
    <path id="Tracé_17" data-name="Tracé 17" d="M2459.982,887.365h6.491a11.431,11.431,0,0,1,4.1.7,8.859,8.859,0,0,1,3.111,1.971,8.567,8.567,0,0,1,1.971,3.044,11.474,11.474,0,0,1,0,7.805,8.434,8.434,0,0,1-1.971,3.031,8.949,8.949,0,0,1-3.111,1.958,11.421,11.421,0,0,1-4.1.7h-6.491Zm6.33,15.771a8.077,8.077,0,0,0,2.789-.443,5.442,5.442,0,0,0,2.012-1.247,5.105,5.105,0,0,0,1.207-1.945,8.185,8.185,0,0,0,0-5.069,5.1,5.1,0,0,0-1.207-1.944,5.446,5.446,0,0,0-2.012-1.247,8.076,8.076,0,0,0-2.789-.442H2463.6v12.338Z" transform="translate(-2354.333 -886.936)" fill="#fff"/>
    <path id="Tracé_18" data-name="Tracé 18" d="M2525.267,887.365h4.131l7.215,19.2h-4l-1.582-4.587h-7.4l-1.583,4.587h-4Zm4.587,11.292-1.717-4.8-.7-2.334h-.215l-.7,2.334-1.716,4.8Z" transform="translate(-2389.633 -886.936)" fill="#fff"/>
    <path id="Tracé_19" data-name="Tracé 19" d="M2571.131,906.569v-19.2h6.76a7.294,7.294,0,0,1,2.561.443,6.325,6.325,0,0,1,2.079,1.247,5.944,5.944,0,0,1,0,8.771,6.329,6.329,0,0,1-2.079,1.247,7.309,7.309,0,0,1-2.561.442h-3.138v7.054Zm6.813-10.487a2.739,2.739,0,0,0,2.146-.8,2.686,2.686,0,0,0,.724-1.851,2.9,2.9,0,0,0-.174-.992,2.274,2.274,0,0,0-.536-.844,2.634,2.634,0,0,0-.9-.577,3.38,3.38,0,0,0-1.26-.215h-3.192v5.284Z" transform="translate(-2421.898 -886.936)" fill="#fff"/>
    <path id="Tracé_20" data-name="Tracé 20" d="M2611.626,906.569v-19.2h6.759a7.3,7.3,0,0,1,2.562.443,6.325,6.325,0,0,1,2.079,1.247,5.944,5.944,0,0,1,0,8.771,6.329,6.329,0,0,1-2.079,1.247,7.313,7.313,0,0,1-2.562.442h-3.138v7.054Zm6.813-10.487a2.74,2.74,0,0,0,2.146-.8,2.686,2.686,0,0,0,.724-1.851,2.9,2.9,0,0,0-.174-.992,2.277,2.277,0,0,0-.536-.844,2.631,2.631,0,0,0-.9-.577,3.38,3.38,0,0,0-1.26-.215h-3.192v5.284Z" transform="translate(-2446.514 -886.936)" fill="#fff"/>
    <path id="Tracé_21" data-name="Tracé 21" d="M2673.436,906.333a10.112,10.112,0,0,1-3.983-.778,9.705,9.705,0,0,1-5.283-5.324,10.473,10.473,0,0,1,0-7.859,9.706,9.706,0,0,1,5.283-5.324,10.584,10.584,0,0,1,7.966,0,9.707,9.707,0,0,1,5.284,5.324,10.482,10.482,0,0,1,0,7.859,9.706,9.706,0,0,1-5.284,5.324A10.11,10.11,0,0,1,2673.436,906.333Zm0-3.433a6.493,6.493,0,0,0,2.508-.483,6.312,6.312,0,0,0,2.038-1.341A6.091,6.091,0,0,0,2679.35,899a7.564,7.564,0,0,0,0-5.391,6.1,6.1,0,0,0-1.368-2.079,6.322,6.322,0,0,0-2.038-1.341,6.756,6.756,0,0,0-5.016,0,6.309,6.309,0,0,0-2.038,1.341,6.1,6.1,0,0,0-1.368,2.079,7.578,7.578,0,0,0,0,5.391,6.1,6.1,0,0,0,1.368,2.078,6.3,6.3,0,0,0,2.038,1.341A6.488,6.488,0,0,0,2673.436,902.9Z" transform="translate(-2477.99 -886.271)" fill="#fff"/>
    <path id="Tracé_22" data-name="Tracé 22" d="M2722.024,887.365h4.211l7.724,12.874h.215l-.215-3.7v-9.173h3.594v19.2h-3.809l-8.153-13.6h-.215l.215,3.7v9.9h-3.568Z" transform="translate(-2513.624 -886.936)" fill="#fff"/>
  </g>
</svg>
